<svg width="66" height="65" viewBox="0 0 66 65" fill="none" xmlns="http://www.w3.org/2000/svg">
<g id="Github" clip-path="url(#clip0_15_202)">
<path id="Vector" d="M33 0C15.0437 0 0.5 14.5437 0.5 32.5C0.5 46.8812 9.80312 59.0281 22.7219 63.3344C24.3469 63.6188 24.9562 62.6437 24.9562 61.7906C24.9562 61.0187 24.9156 58.4594 24.9156 55.7375C16.75 57.2406 14.6375 53.7469 13.9875 51.9188C13.6219 50.9844 12.0375 48.1 10.6562 47.3281C9.51875 46.7188 7.89375 45.2156 10.6156 45.175C13.175 45.1344 15.0031 47.5312 15.6125 48.5062C18.5375 53.4219 23.2094 52.0406 25.0781 51.1875C25.3625 49.075 26.2156 47.6531 27.15 46.8406C19.9188 46.0281 12.3625 43.225 12.3625 30.7937C12.3625 27.2594 13.6219 24.3344 15.6938 22.0594C15.3687 21.2469 14.2312 17.9156 16.0188 13.4469C16.0188 13.4469 18.7406 12.5938 24.9562 16.7781C27.5562 16.0469 30.3188 15.6812 33.0813 15.6812C35.8438 15.6812 38.6063 16.0469 41.2063 16.7781C47.4219 12.5531 50.1437 13.4469 50.1437 13.4469C51.9313 17.9156 50.7938 21.2469 50.4688 22.0594C52.5406 24.3344 53.8 27.2188 53.8 30.7937C53.8 43.2656 46.2031 46.0281 38.9719 46.8406C40.15 47.8563 41.1656 49.8063 41.1656 52.8531C41.1656 57.2 41.125 60.6937 41.125 61.7906C41.125 62.6437 41.7344 63.6594 43.3594 63.3344C49.8116 61.1568 55.4183 57.0104 59.3901 51.479C63.3619 45.9476 65.4989 39.3097 65.5 32.5C65.5 14.5437 50.9562 0 33 0Z" fill="#1D5D9B"/>
</g>
<defs>
<clipPath id="clip0_15_202">
<rect width="65" height="65" fill="white" transform="translate(0.5)"/>
</clipPath>
</defs>
</svg>
