<svg width="50" height="51" viewBox="0 0 50 51" fill="none" xmlns="http://www.w3.org/2000/svg">
<g clip-path="url(#clip0_15_258)">
<g clip-path="url(#clip1_15_258)">
<path d="M43.75 16.125C44.5788 16.125 45.3737 16.4542 45.9597 17.0403C46.5458 17.6263 46.875 18.4212 46.875 19.25V34.875C46.875 35.7038 46.5458 36.4987 45.9597 37.0847C45.3737 37.6708 44.5788 38 43.75 38H6.25C5.4212 38 4.62634 37.6708 4.04029 37.0847C3.45424 36.4987 3.125 35.7038 3.125 34.875V19.25C3.125 18.4212 3.45424 17.6263 4.04029 17.0403C4.62634 16.4542 5.4212 16.125 6.25 16.125H43.75ZM6.25 13C4.5924 13 3.00269 13.6585 1.83058 14.8306C0.65848 16.0027 0 17.5924 0 19.25L0 34.875C0 36.5326 0.65848 38.1223 1.83058 39.2944C3.00269 40.4665 4.5924 41.125 6.25 41.125H43.75C45.4076 41.125 46.9973 40.4665 48.1694 39.2944C49.3415 38.1223 50 36.5326 50 34.875V19.25C50 17.5924 49.3415 16.0027 48.1694 14.8306C46.9973 13.6585 45.4076 13 43.75 13H6.25Z" fill="#1D5D9B"/>
<path d="M40.625 32.5312C40.625 32.324 40.7073 32.1253 40.8538 31.9788C41.0003 31.8323 41.1991 31.75 41.4062 31.75H42.9688C43.1759 31.75 43.3747 31.8323 43.5212 31.9788C43.6677 32.1253 43.75 32.324 43.75 32.5312V34.0938C43.75 34.301 43.6677 34.4997 43.5212 34.6462C43.3747 34.7927 43.1759 34.875 42.9688 34.875H41.4062C41.1991 34.875 41.0003 34.7927 40.8538 34.6462C40.7073 34.4997 40.625 34.301 40.625 34.0938V32.5312ZM40.625 26.2812C40.625 26.074 40.7073 25.8753 40.8538 25.7288C41.0003 25.5823 41.1991 25.5 41.4062 25.5H42.9688C43.1759 25.5 43.3747 25.5823 43.5212 25.7288C43.6677 25.8753 43.75 26.074 43.75 26.2812V27.8438C43.75 28.051 43.6677 28.2497 43.5212 28.3962C43.3747 28.5427 43.1759 28.625 42.9688 28.625H41.4062C41.1991 28.625 41.0003 28.5427 40.8538 28.3962C40.7073 28.2497 40.625 28.051 40.625 27.8438V26.2812ZM25 26.2812C25 26.074 25.0823 25.8753 25.2288 25.7288C25.3753 25.5823 25.574 25.5 25.7812 25.5H27.3438C27.551 25.5 27.7497 25.5823 27.8962 25.7288C28.0427 25.8753 28.125 26.074 28.125 26.2812V27.8438C28.125 28.051 28.0427 28.2497 27.8962 28.3962C27.7497 28.5427 27.551 28.625 27.3438 28.625H25.7812C25.574 28.625 25.3753 28.5427 25.2288 28.3962C25.0823 28.2497 25 28.051 25 27.8438V26.2812ZM31.25 26.2812C31.25 26.074 31.3323 25.8753 31.4788 25.7288C31.6253 25.5823 31.824 25.5 32.0312 25.5H36.7188C36.926 25.5 37.1247 25.5823 37.2712 25.7288C37.4177 25.8753 37.5 26.074 37.5 26.2812V27.8438C37.5 28.051 37.4177 28.2497 37.2712 28.3962C37.1247 28.5427 36.926 28.625 36.7188 28.625H32.0312C31.824 28.625 31.6253 28.5427 31.4788 28.3962C31.3323 28.2497 31.25 28.051 31.25 27.8438V26.2812ZM34.375 32.5312C34.375 32.324 34.4573 32.1253 34.6038 31.9788C34.7503 31.8323 34.949 31.75 35.1562 31.75H36.7188C36.926 31.75 37.1247 31.8323 37.2712 31.9788C37.4177 32.1253 37.5 32.324 37.5 32.5312V34.0938C37.5 34.301 37.4177 34.4997 37.2712 34.6462C37.1247 34.7927 36.926 34.875 36.7188 34.875H35.1562C34.949 34.875 34.7503 34.7927 34.6038 34.6462C34.4573 34.4997 34.375 34.301 34.375 34.0938V32.5312ZM18.75 26.2812C18.75 26.074 18.8323 25.8753 18.9788 25.7288C19.1253 25.5823 19.324 25.5 19.5312 25.5H21.0938C21.301 25.5 21.4997 25.5823 21.6462 25.7288C21.7927 25.8753 21.875 26.074 21.875 26.2812V27.8438C21.875 28.051 21.7927 28.2497 21.6462 28.3962C21.4997 28.5427 21.301 28.625 21.0938 28.625H19.5312C19.324 28.625 19.1253 28.5427 18.9788 28.3962C18.8323 28.2497 18.75 28.051 18.75 27.8438V26.2812ZM12.5 26.2812C12.5 26.074 12.5823 25.8753 12.7288 25.7288C12.8753 25.5823 13.074 25.5 13.2812 25.5H14.8438C15.051 25.5 15.2497 25.5823 15.3962 25.7288C15.5427 25.8753 15.625 26.074 15.625 26.2812V27.8438C15.625 28.051 15.5427 28.2497 15.3962 28.3962C15.2497 28.5427 15.051 28.625 14.8438 28.625H13.2812C13.074 28.625 12.8753 28.5427 12.7288 28.3962C12.5823 28.2497 12.5 28.051 12.5 27.8438V26.2812ZM6.25 26.2812C6.25 26.074 6.33231 25.8753 6.47882 25.7288C6.62534 25.5823 6.82405 25.5 7.03125 25.5H8.59375C8.80095 25.5 8.99966 25.5823 9.14618 25.7288C9.29269 25.8753 9.375 26.074 9.375 26.2812V27.8438C9.375 28.051 9.29269 28.2497 9.14618 28.3962C8.99966 28.5427 8.80095 28.625 8.59375 28.625H7.03125C6.82405 28.625 6.62534 28.5427 6.47882 28.3962C6.33231 28.2497 6.25 28.051 6.25 27.8438V26.2812ZM40.625 20.0312C40.625 19.824 40.7073 19.6253 40.8538 19.4788C41.0003 19.3323 41.1991 19.25 41.4062 19.25H42.9688C43.1759 19.25 43.3747 19.3323 43.5212 19.4788C43.6677 19.6253 43.75 19.824 43.75 20.0312V21.5938C43.75 21.801 43.6677 21.9997 43.5212 22.1462C43.3747 22.2927 43.1759 22.375 42.9688 22.375H41.4062C41.1991 22.375 41.0003 22.2927 40.8538 22.1462C40.7073 21.9997 40.625 21.801 40.625 21.5938V20.0312ZM34.375 20.0312C34.375 19.824 34.4573 19.6253 34.6038 19.4788C34.7503 19.3323 34.949 19.25 35.1562 19.25H36.7188C36.926 19.25 37.1247 19.3323 37.2712 19.4788C37.4177 19.6253 37.5 19.824 37.5 20.0312V21.5938C37.5 21.801 37.4177 21.9997 37.2712 22.1462C37.1247 22.2927 36.926 22.375 36.7188 22.375H35.1562C34.949 22.375 34.7503 22.2927 34.6038 22.1462C34.4573 21.9997 34.375 21.801 34.375 21.5938V20.0312ZM28.125 20.0312C28.125 19.824 28.2073 19.6253 28.3538 19.4788C28.5003 19.3323 28.699 19.25 28.9062 19.25H30.4688C30.676 19.25 30.8747 19.3323 31.0212 19.4788C31.1677 19.6253 31.25 19.824 31.25 20.0312V21.5938C31.25 21.801 31.1677 21.9997 31.0212 22.1462C30.8747 22.2927 30.676 22.375 30.4688 22.375H28.9062C28.699 22.375 28.5003 22.2927 28.3538 22.1462C28.2073 21.9997 28.125 21.801 28.125 21.5938V20.0312ZM21.875 20.0312C21.875 19.824 21.9573 19.6253 22.1038 19.4788C22.2503 19.3323 22.449 19.25 22.6562 19.25H24.2188C24.426 19.25 24.6247 19.3323 24.7712 19.4788C24.9177 19.6253 25 19.824 25 20.0312V21.5938C25 21.801 24.9177 21.9997 24.7712 22.1462C24.6247 22.2927 24.426 22.375 24.2188 22.375H22.6562C22.449 22.375 22.2503 22.2927 22.1038 22.1462C21.9573 21.9997 21.875 21.801 21.875 21.5938V20.0312ZM15.625 20.0312C15.625 19.824 15.7073 19.6253 15.8538 19.4788C16.0003 19.3323 16.199 19.25 16.4062 19.25H17.9688C18.176 19.25 18.3747 19.3323 18.5212 19.4788C18.6677 19.6253 18.75 19.824 18.75 20.0312V21.5938C18.75 21.801 18.6677 21.9997 18.5212 22.1462C18.3747 22.2927 18.176 22.375 17.9688 22.375H16.4062C16.199 22.375 16.0003 22.2927 15.8538 22.1462C15.7073 21.9997 15.625 21.801 15.625 21.5938V20.0312ZM6.25 20.0312C6.25 19.824 6.33231 19.6253 6.47882 19.4788C6.62534 19.3323 6.82405 19.25 7.03125 19.25H11.7188C11.926 19.25 12.1247 19.3323 12.2712 19.4788C12.4177 19.6253 12.5 19.824 12.5 20.0312V21.5938C12.5 21.801 12.4177 21.9997 12.2712 22.1462C12.1247 22.2927 11.926 22.375 11.7188 22.375H7.03125C6.82405 22.375 6.62534 22.2927 6.47882 22.1462C6.33231 21.9997 6.25 21.801 6.25 21.5938V20.0312ZM6.25 32.5312C6.25 32.324 6.33231 32.1253 6.47882 31.9788C6.62534 31.8323 6.82405 31.75 7.03125 31.75H8.59375C8.80095 31.75 8.99966 31.8323 9.14618 31.9788C9.29269 32.1253 9.375 32.324 9.375 32.5312V34.0938C9.375 34.301 9.29269 34.4997 9.14618 34.6462C8.99966 34.7927 8.80095 34.875 8.59375 34.875H7.03125C6.82405 34.875 6.62534 34.7927 6.47882 34.6462C6.33231 34.4997 6.25 34.301 6.25 34.0938V32.5312ZM12.5 32.5312C12.5 32.324 12.5823 32.1253 12.7288 31.9788C12.8753 31.8323 13.074 31.75 13.2812 31.75H30.4688C30.676 31.75 30.8747 31.8323 31.0212 31.9788C31.1677 32.1253 31.25 32.324 31.25 32.5312V34.0938C31.25 34.301 31.1677 34.4997 31.0212 34.6462C30.8747 34.7927 30.676 34.875 30.4688 34.875H13.2812C13.074 34.875 12.8753 34.7927 12.7288 34.6462C12.5823 34.4997 12.5 34.301 12.5 34.0938V32.5312Z" fill="#1D5D9B"/>
</g>
</g>
<defs>
<clipPath id="clip0_15_258">
<rect width="50" height="50" fill="white" transform="translate(0 0.5)"/>
</clipPath>
<clipPath id="clip1_15_258">
<rect width="50" height="50" fill="white" transform="translate(0 0.5)"/>
</clipPath>
</defs>
</svg>
