<svg width="222" height="150" viewBox="0 0 222 150" fill="none" xmlns="http://www.w3.org/2000/svg">
<path d="M0 0H222V147L211 144L199 142C199 142 191.5 140.5 188 142C184.5 143.5 180 146.5 178 147C176 147.5 168 149.5 168 149.5H155L143 147C143 147 136 144 132.5 140.5C129 137 130 135 125 131.5C120 128 115 126.5 112 125C109 123.5 104 119 99.5 118C95 117 91.5 119 87 118C82.5 117 73.5 117.5 69.5 116.5C65.5 115.5 57 112 52 108.5C47 105 45.5 98.5 45.5 91C45.5 83.5 48 83.5 48 77.5C48 71.5 45.5 63.5 45.5 63.5C45.5 63.5 45.5 56.5 43 48C40.5 39.5 34.5 34 34.5 34C27.5138 29.9369 24.2692 26.5 21.5 22C18.7308 17.5 14.5 11.5 13.5 9C12.5 6.5 5.27208 3.51472 0 0Z" fill="#75C2F6"/>
</svg>
