<svg width="20" height="21" viewBox="0 0 20 21" fill="none" xmlns="http://www.w3.org/2000/svg">
<g id="ArrowBarDown">
<path id="Vector" fill-rule="evenodd" clip-rule="evenodd" d="M1.25 4.875C1.25 4.70924 1.31585 4.55027 1.43306 4.43306C1.55027 4.31585 1.70924 4.25 1.875 4.25H18.125C18.2908 4.25 18.4497 4.31585 18.5669 4.43306C18.6842 4.55027 18.75 4.70924 18.75 4.875C18.75 5.04076 18.6842 5.19973 18.5669 5.31694C18.4497 5.43415 18.2908 5.5 18.125 5.5H1.875C1.70924 5.5 1.55027 5.43415 1.43306 5.31694C1.31585 5.19973 1.25 5.04076 1.25 4.875ZM10 8C10.1658 8 10.3247 8.06585 10.4419 8.18306C10.5592 8.30027 10.625 8.45924 10.625 8.625V15.8663L13.3075 13.1825C13.4249 13.0651 13.584 12.9992 13.75 12.9992C13.916 12.9992 14.0751 13.0651 14.1925 13.1825C14.3099 13.2999 14.3758 13.459 14.3758 13.625C14.3758 13.791 14.3099 13.9501 14.1925 14.0675L10.4425 17.8175C10.3844 17.8757 10.3155 17.9219 10.2395 17.9534C10.1636 17.9849 10.0822 18.0011 10 18.0011C9.91779 18.0011 9.83639 17.9849 9.76046 17.9534C9.68453 17.9219 9.61556 17.8757 9.5575 17.8175L5.8075 14.0675C5.69014 13.9501 5.62421 13.791 5.62421 13.625C5.62421 13.459 5.69014 13.2999 5.8075 13.1825C5.92486 13.0651 6.08403 12.9992 6.25 12.9992C6.41597 12.9992 6.57514 13.0651 6.6925 13.1825L9.375 15.8663V8.625C9.375 8.45924 9.44085 8.30027 9.55806 8.18306C9.67527 8.06585 9.83424 8 10 8Z" fill="#F4D160"/>
</g>
</svg>
