<svg width="66" height="65" viewBox="0 0 66 65" fill="none" xmlns="http://www.w3.org/2000/svg">
<g id="Linkedin" clip-path="url(#clip0_15_200)">
<path id="Vector" d="M0.5 4.65563C0.5 2.08406 2.63687 0 5.27344 0H60.7266C63.3631 0 65.5 2.08406 65.5 4.65563V60.3444C65.5 62.9159 63.3631 65 60.7266 65H5.27344C2.63687 65 0.5 62.9159 0.5 60.3444V4.65563ZM20.5809 54.4131V25.0616H10.8269V54.4131H20.5809ZM15.7059 21.0519C19.1063 21.0519 21.2228 18.8013 21.2228 15.9819C21.1619 13.1016 19.1103 10.9119 15.7709 10.9119C12.4316 10.9119 10.25 13.1056 10.25 15.9819C10.25 18.8013 12.3666 21.0519 15.6409 21.0519H15.7059ZM35.6447 54.4131V38.0209C35.6447 37.1434 35.7097 36.2659 35.9697 35.6403C36.6725 33.8894 38.2772 32.0734 40.9747 32.0734C44.505 32.0734 45.9147 34.7628 45.9147 38.7116V54.4131H55.6688V37.5781C55.6688 28.5594 50.8587 24.3669 44.44 24.3669C39.2644 24.3669 36.9447 27.2106 35.6447 29.2134V29.315H35.5797C35.6013 29.2811 35.6229 29.2472 35.6447 29.2134V25.0616H25.8947C26.0166 27.8159 25.8947 54.4131 25.8947 54.4131H35.6447Z" fill="#1D5D9B"/>
</g>
<defs>
<clipPath id="clip0_15_200">
<rect width="65" height="65" fill="white" transform="translate(0.5)"/>
</clipPath>
</defs>
</svg>
