<svg width="50" height="51" viewBox="0 0 50 51" fill="none" xmlns="http://www.w3.org/2000/svg">
<g clip-path="url(#clip0_15_266)">
<path d="M4.16565 8.83437C4.16565 4.23125 13.4938 0.5 25 0.5C36.5063 0.5 45.8344 4.23125 45.8344 8.83437V13C45.8344 17.6031 36.5063 21.3344 25 21.3344C13.4938 21.3344 4.16565 17.6031 4.16565 13V8.83437Z" fill="#1D5D9B"/>
<path d="M4.16565 20.2937V29.6687C4.16565 34.2656 13.4938 38 25 38C36.5063 38 45.8344 34.2687 45.8344 29.6656V20.2937C44.4271 21.3075 42.8959 22.1371 41.2781 22.7625C36.9063 24.5125 31.1469 25.5 25 25.5C18.8563 25.5 13.0969 24.5093 8.72502 22.7625C7.10722 22.1372 5.57604 21.3075 4.16877 20.2937H4.16565Z" fill="#1D5D9B"/>
<path d="M45.8344 36.9626C44.4269 37.9753 42.8958 38.8039 41.2781 39.4282C36.9031 41.1782 31.1469 42.1657 24.9969 42.1657C18.8531 42.1657 13.0938 41.1782 8.7219 39.4282C7.10412 38.8029 5.57295 37.9732 4.16565 36.9595V42.1657C4.16565 46.7688 13.4938 50.5001 25 50.5001C36.5063 50.5001 45.8344 46.7688 45.8344 42.1657V36.9626Z" fill="#1D5D9B"/>
</g>
<defs>
<clipPath id="clip0_15_266">
<rect width="50" height="50" fill="white" transform="translate(0 0.5)"/>
</clipPath>
</defs>
</svg>
