<svg width="66" height="65" viewBox="0 0 66 65" fill="none" xmlns="http://www.w3.org/2000/svg">
<g id="Twitter" clip-path="url(#clip0_15_198)">
<path id="Vector" d="M20.9181 60.9375C45.4475 60.9375 58.8659 40.6128 58.8659 23.0181C58.8659 22.4494 58.8659 21.8725 58.8416 21.3038C61.454 19.4126 63.7087 17.0712 65.5 14.3894C63.0597 15.4653 60.4737 16.1745 57.8259 16.4938C60.615 14.8267 62.7039 12.2036 63.7044 9.1122C61.084 10.6646 58.216 11.7543 55.2259 12.3338C53.2157 10.1929 50.5557 8.77467 47.6578 8.29871C44.76 7.82275 41.7861 8.31563 39.1967 9.701C36.6073 11.0864 34.547 13.2869 33.335 15.9618C32.1229 18.6367 31.8267 21.6366 32.4922 24.4969C27.1896 24.231 22.0021 22.8535 17.2661 20.4537C12.5302 18.0538 8.35153 14.6853 5.00125 10.5666C3.30044 13.5041 2.78139 16.9788 3.5495 20.2852C4.31761 23.5915 6.31529 26.4815 9.13688 28.3684C7.02251 28.2966 4.95462 27.7288 3.1 26.7109V26.8938C3.10365 29.971 4.16969 32.9527 6.11792 35.3347C8.06616 37.7167 10.7771 39.3529 13.7925 39.9669C12.6479 40.2822 11.4656 40.4394 10.2784 40.4341C9.4415 40.4366 8.60623 40.3591 7.78406 40.2025C8.63632 42.8515 10.2958 45.1676 12.5301 46.8263C14.7643 48.4851 17.4615 49.4035 20.2437 49.4528C15.5173 53.1651 9.67882 55.1785 3.66875 55.1688C2.60974 55.1732 1.55147 55.1122 0.5 54.9859C6.5999 58.8748 13.684 60.9397 20.9181 60.9375Z" fill="#1D5D9B"/>
</g>
<defs>
<clipPath id="clip0_15_198">
<rect width="65" height="65" fill="white" transform="translate(0.5)"/>
</clipPath>
</defs>
</svg>
